<?xml version="1.0" standalone="no"?>
<!DOCTYPE svg PUBLIC "-//W3C//DTD SVG 20010904//EN"
 "http://www.w3.org/TR/2001/REC-SVG-20010904/DTD/svg10.dtd">
<svg version="1.0" xmlns="http://www.w3.org/2000/svg"
 width="256.000000pt" height="256.000000pt" viewBox="0 0 256.000000 256.000000"
 preserveAspectRatio="xMidYMid meet">
<metadata>
Created by potrace 1.11, written by Peter Selinger 2001-2013
</metadata>
<g transform="translate(0.000000,256.000000) scale(0.100000,-0.100000)"
fill="#000000" stroke="none">
<path d="M2 1338 l3 -1223 1278 0 1277 0 0 1222 0 1223 -1280 0 -1280 0 2
-1222z m2309 962 c1 -8 2 -448 2 -977 l2 -963 -1031 0 c-817 0 -1033 3 -1036
13 -3 10 -2 1880 1 1927 1 13 123 15 1031 15 908 0 1030 -2 1031 -15z"/>
<path d="M637 1947 c4 -7 11 -16 16 -22 4 -5 98 -133 208 -283 173 -237 198
-276 187 -290 -7 -9 -18 -23 -25 -32 -6 -8 -23 -28 -36 -45 -98 -121 -457
-576 -457 -580 0 -7 415 -5 426 3 6 4 78 98 160 209 l150 201 74 -106 c41 -59
77 -109 80 -112 3 -3 36 -49 73 -102 l68 -98 215 1 215 1 -28 37 c-15 20 -130
170 -255 334 -126 164 -228 302 -228 307 0 4 19 32 43 62 24 29 103 132 177
228 73 96 155 203 182 238 l50 62 -224 0 -224 0 -108 -161 -108 -161 -47 73
c-26 41 -71 113 -101 161 l-55 87 -218 0 c-167 0 -216 -3 -210 -12z"/>
</g>
</svg>
